<svg width="123" height="107" viewBox="0 0 123 107" fill="none" xmlns="http://www.w3.org/2000/svg">
<g clip-path="url(#clip0_4463_66373)">
<path d="M13.6794 87.5002C13.6341 87.602 13.5832 87.6699 13.5153 87.7095C13.4475 87.7491 13.3909 87.766 13.34 87.766H12.9045C12.848 87.766 12.7858 87.7491 12.7235 87.7095C12.6613 87.6699 12.6048 87.602 12.5652 87.5002L9.44325 80.1139L6.34393 87.5002C6.29868 87.602 6.24778 87.6699 6.17991 87.7095C6.11205 87.7491 6.05549 87.766 6.00459 87.766H5.59172C5.53517 87.766 5.47295 87.7491 5.41074 87.7095C5.34853 87.6699 5.29197 87.602 5.25238 87.5002L0.0378338 75.1991C-0.0243787 75.0351 -0.0187231 74.9106 0.0661123 74.8315C0.150948 74.7523 0.241439 74.707 0.348897 74.707H0.976678C1.03324 74.707 1.09545 74.724 1.15766 74.7579C1.21987 74.7919 1.27077 74.8597 1.30471 74.9615L5.75008 85.9166L10.235 74.9615C10.2803 74.8597 10.3312 74.7975 10.3877 74.7636C10.45 74.7297 10.5065 74.7183 10.5631 74.7183H11.2248C11.3266 74.7183 11.4114 74.7579 11.485 74.8371C11.5585 74.9163 11.5641 75.0294 11.5019 75.1878L10.0937 78.5359L13.1081 85.9223L17.6157 74.9672C17.661 74.8654 17.7119 74.8032 17.7684 74.7692C17.8306 74.7353 17.8872 74.724 17.9437 74.724H18.6055C18.7073 74.724 18.7921 74.7636 18.8656 74.8428C18.9392 74.922 18.9448 75.0351 18.8826 75.1934L13.6737 87.5002H13.6794Z" fill="white"/>
<path d="M30.2935 75.0744C30.2935 74.8313 30.4067 74.7125 30.6329 74.7125H31.1645C31.3794 74.7125 31.4812 74.8313 31.4812 75.0744V87.3812C31.4812 87.6301 31.3738 87.7545 31.1645 87.7545H30.6612C30.5481 87.7545 30.4576 87.7149 30.3897 87.6414C30.3218 87.5679 30.2879 87.4717 30.2879 87.3586V85.6619C30.0447 86.0408 29.7619 86.3689 29.4339 86.6573C29.1059 86.9457 28.7552 87.1833 28.3763 87.3756C27.9973 87.5679 27.6071 87.7149 27.1999 87.8111C26.7927 87.9129 26.3855 87.9581 25.9896 87.9581C25.2204 87.9581 24.5134 87.8167 23.863 87.5396C23.2126 87.2625 22.6471 86.8722 22.172 86.3745C21.6969 85.8712 21.3236 85.2773 21.0578 84.5817C20.792 83.8917 20.6562 83.1281 20.6562 82.2968V75.0631C20.6562 74.8199 20.7637 74.7012 20.9786 74.7012H21.5216C21.7478 74.7012 21.8609 74.8199 21.8609 75.0631V82.2459C21.8609 82.9132 21.9684 83.524 22.1889 84.0726C22.4039 84.6212 22.7036 85.0963 23.0825 85.4922C23.4615 85.8881 23.9139 86.1879 24.4343 86.4028C24.9546 86.6177 25.5201 86.7252 26.1253 86.7252C26.5947 86.7252 27.0755 86.6403 27.5618 86.465C28.0539 86.2897 28.495 86.0352 28.8966 85.6902C29.2981 85.3508 29.6262 84.921 29.8863 84.412C30.1465 83.903 30.2766 83.3035 30.2766 82.6191V75.0631L30.2935 75.0744Z" fill="white"/>
<path d="M34.6289 75.0801C34.6289 74.9613 34.6628 74.8651 34.7364 74.8029C34.8042 74.7407 34.9004 74.7068 35.0135 74.7068H35.4377C35.5564 74.7068 35.6526 74.7407 35.7148 74.8142C35.777 74.8878 35.8109 74.9726 35.8109 75.0801V76.6976C36.1107 76.2508 36.4387 75.8888 36.8063 75.606C37.174 75.3232 37.5472 75.1083 37.9375 74.9443C38.3221 74.786 38.7067 74.6785 39.0856 74.6219C39.4645 74.5654 39.8152 74.5371 40.1375 74.5371C40.9237 74.5371 41.642 74.6728 42.2924 74.9443C42.9371 75.2158 43.4914 75.5891 43.9495 76.0755C44.4076 76.5562 44.7639 77.1331 45.0128 77.8004C45.2673 78.4678 45.3917 79.1974 45.3917 79.9949V87.3077C45.3917 87.4547 45.3521 87.5678 45.2729 87.6414C45.1937 87.7149 45.0976 87.7545 44.9732 87.7545H44.5999C44.4359 87.7545 44.3284 87.7205 44.2775 87.6527C44.2266 87.5848 44.1983 87.4717 44.1983 87.319V79.9666C44.1983 79.4349 44.1022 78.9146 43.9156 78.4056C43.7289 77.8966 43.4574 77.4441 43.1011 77.0539C42.7448 76.658 42.315 76.3413 41.8003 76.0981C41.2913 75.8549 40.7088 75.7361 40.064 75.7361C39.538 75.7361 39.0234 75.8379 38.5144 76.0472C38.0054 76.2508 37.5529 76.5392 37.1513 76.9068C36.7498 77.2745 36.4274 77.7043 36.1842 78.2077C35.941 78.711 35.8166 79.254 35.8166 79.8421V87.4321C35.8166 87.6527 35.7148 87.7601 35.5055 87.7601H34.9626C34.7477 87.7601 34.6402 87.6527 34.6402 87.4321L34.6289 75.0914V75.0801Z" fill="white"/>
<path d="M61.4625 87.4205C61.4625 87.641 61.3607 87.7485 61.1627 87.7485H60.5462C60.4388 87.7485 60.3653 87.7202 60.3257 87.6637C60.2861 87.6071 60.2691 87.5223 60.2691 87.4205V84.9489C60.1277 85.1751 59.975 85.407 59.8053 85.6333C59.6357 85.8595 59.466 86.0631 59.2907 86.2271C58.6855 86.804 58.0068 87.2451 57.2433 87.5505C56.4855 87.8559 55.6767 88.0087 54.8227 88.0087C53.9008 88.0087 53.0298 87.8333 52.2154 87.4827C51.401 87.132 50.694 86.6513 50.0832 86.0461C49.4781 85.441 48.9973 84.7284 48.641 83.9083C48.2847 83.0939 48.1094 82.2229 48.1094 81.2954C48.1094 80.3678 48.2847 79.5025 48.641 78.6881C48.9973 77.8737 49.4781 77.1667 50.0832 76.5559C50.6884 75.9507 51.401 75.47 52.2154 75.1137C53.0298 74.7574 53.8951 74.582 54.8227 74.582C55.3882 74.582 55.9425 74.6556 56.4741 74.8026C57.0058 74.9497 57.5091 75.1533 57.9786 75.4191C58.448 75.6849 58.8778 76.0073 59.2681 76.3862C59.6583 76.7651 59.992 77.1837 60.2691 77.6531V71.1943C60.2691 71.1151 60.2917 71.0472 60.3313 70.9907C60.3766 70.9341 60.4444 70.9058 60.5462 70.9058L61.2362 70.8945C61.3211 70.8945 61.3776 70.9228 61.4116 70.9794C61.4455 71.0359 61.4568 71.1094 61.4568 71.1943V87.4261L61.4625 87.4205ZM49.7948 83.4275C50.0776 84.1006 50.4678 84.6944 50.9542 85.2034C51.4462 85.7124 52.0175 86.114 52.6735 86.4137C53.3296 86.7135 54.0365 86.8605 54.7887 86.8605C55.541 86.8605 56.2649 86.7135 56.9436 86.4251C57.6166 86.1366 58.2104 85.7407 58.7138 85.2374C59.2171 84.734 59.6187 84.1515 59.9128 83.4784C60.2069 82.8054 60.3539 82.0871 60.3539 81.318C60.3539 80.5488 60.2126 79.8475 59.9241 79.1688C59.6357 78.4901 59.2454 77.8963 58.7477 77.3816C58.25 76.8726 57.6675 76.4654 57.0001 76.16C56.3327 75.8546 55.6201 75.7075 54.8566 75.7075C54.0931 75.7075 53.3918 75.8546 52.7244 76.1543C52.057 76.4541 51.4745 76.8556 50.9768 77.3646C50.4791 77.8737 50.0889 78.4618 49.8004 79.1405C49.512 79.8136 49.3706 80.5318 49.3706 81.2954C49.3706 82.0589 49.512 82.7545 49.7948 83.4275Z" fill="white"/>
<path d="M65.0784 81.732C65.135 82.4559 65.3216 83.1289 65.6327 83.7567C65.9438 84.3845 66.351 84.9274 66.8543 85.3912C67.3577 85.855 67.9289 86.2226 68.5737 86.4884C69.2184 86.7542 69.9027 86.89 70.621 86.89C71.1527 86.89 71.6164 86.8447 72.0067 86.7486C72.3969 86.6524 72.7419 86.528 73.0416 86.3809C73.3414 86.2339 73.6016 86.0699 73.8278 85.8889C74.054 85.7136 74.2689 85.5382 74.4669 85.3742C74.5461 85.312 74.6309 85.2781 74.7327 85.2781C74.8175 85.2781 74.8798 85.3064 74.9137 85.3629L75.2134 85.7701C75.27 85.8493 75.2926 85.9341 75.2813 86.019C75.27 86.1038 75.2304 86.183 75.1569 86.2509C74.8515 86.5223 74.5291 86.7655 74.1954 86.9804C73.8617 87.1954 73.5111 87.382 73.1435 87.5404C72.7758 87.6987 72.3856 87.8175 71.9727 87.8967C71.5542 87.9758 71.1131 88.0211 70.638 88.0211C69.7274 88.0211 68.8621 87.8458 68.0364 87.4951C67.2106 87.1445 66.4867 86.6637 65.8702 86.0586C65.2481 85.4534 64.7561 84.7408 64.3884 83.9264C64.0208 83.1119 63.8398 82.2466 63.8398 81.3304C63.8398 80.4142 64.0152 79.5376 64.3715 78.7118C64.7278 77.8917 65.2142 77.1735 65.825 76.557C66.4358 75.9405 67.1597 75.4541 67.9798 75.0978C68.7999 74.7415 69.6765 74.5605 70.604 74.5605C71.5938 74.5605 72.493 74.7472 73.3075 75.1261C74.1219 75.505 74.8175 76.0027 75.4001 76.6249C75.9826 77.247 76.4351 77.954 76.7574 78.7514C77.0798 79.5489 77.2438 80.3633 77.2438 81.1947C77.2438 81.5566 77.0459 81.7376 76.6556 81.7376H65.0728L65.0784 81.732ZM68.6246 76.0763C68.0081 76.3308 67.4538 76.6814 66.9674 77.1226C66.4811 77.5637 66.0738 78.0784 65.7515 78.6666C65.4291 79.2548 65.2142 79.8826 65.118 80.5443H76.0731C75.9713 79.9561 75.7734 79.3735 75.4793 78.7967C75.1852 78.2198 74.8062 77.7051 74.3368 77.2413C73.873 76.7776 73.3244 76.4043 72.691 76.1215C72.0576 75.8387 71.3506 75.6973 70.5701 75.6973C69.8858 75.6973 69.2354 75.8274 68.6189 76.0819L68.6246 76.0763Z" fill="white"/>
<path d="M79.6328 75.0729C79.6328 74.8297 79.7403 74.7109 79.9608 74.7109H80.4642C80.5773 74.7109 80.6678 74.7392 80.7413 74.7958C80.8148 74.8523 80.8488 74.9485 80.8488 75.0842V76.8544C81.0637 76.5151 81.3069 76.2097 81.5897 75.9495C81.8725 75.6894 82.1722 75.4631 82.5002 75.2765C82.8283 75.0899 83.1676 74.9485 83.5239 74.8523C83.8802 74.7562 84.2365 74.7109 84.5872 74.7109C84.9661 74.7109 85.3281 74.7562 85.6787 74.841C86.0294 74.9259 86.3574 75.0333 86.6515 75.1577C86.9513 75.2878 87.2171 75.4236 87.4546 75.5763C87.6922 75.729 87.8788 75.8647 88.0145 75.9891C88.1333 76.1022 88.1955 76.204 88.1899 76.2889C88.1899 76.3737 88.1672 76.4416 88.1333 76.4925L87.8336 76.911C87.8053 76.9449 87.7713 76.9789 87.7318 77.0015C87.6922 77.0241 87.6469 77.0411 87.5904 77.0411C87.5112 77.0411 87.4264 77.0071 87.3359 76.9336C87.1888 76.8035 87.0135 76.6791 86.8155 76.5547C86.6176 76.4303 86.4027 76.3171 86.1651 76.2153C85.9333 76.1135 85.6731 76.0287 85.396 75.9722C85.1188 75.9156 84.8247 75.8817 84.5137 75.8817C84.0895 75.8817 83.6597 75.9552 83.2242 76.1079C82.7887 76.2549 82.3984 76.5038 82.0478 76.8488C81.6971 77.1938 81.4087 77.6462 81.1825 78.2005C80.9562 78.7604 80.8488 79.4504 80.8488 80.2705V87.4023C80.8488 87.6455 80.7413 87.7643 80.5208 87.7643H79.9665C79.7459 87.7643 79.6385 87.6455 79.6385 87.4023V75.0842L79.6328 75.0729Z" fill="white"/>
<path d="M92.0995 74.7863H94.4466C94.5484 74.7863 94.622 74.8089 94.6785 74.8598C94.7351 74.9107 94.7633 74.9899 94.7633 75.103V75.5159C94.7633 75.6007 94.7351 75.6855 94.6728 75.776C94.6106 75.8665 94.5315 75.9118 94.4353 75.9118H92.0995V84.9382C92.0995 85.1249 92.1221 85.3172 92.1674 85.5151C92.2126 85.7131 92.2918 85.8997 92.3993 86.0637C92.5067 86.2277 92.6538 86.3691 92.8348 86.4766C93.0157 86.584 93.242 86.6406 93.5134 86.6463L93.898 86.6576C94.0111 86.6576 94.096 86.6689 94.1582 86.6915C94.2204 86.7141 94.26 86.7368 94.2883 86.7594C94.3165 86.782 94.3279 86.8103 94.3335 86.8442C94.3335 86.8781 94.3335 86.9064 94.3335 86.9347V87.4437C94.3335 87.5568 94.3109 87.6417 94.2713 87.6926C94.2261 87.7435 94.0847 87.7717 93.8471 87.7717C93.7057 87.7717 93.5757 87.7717 93.4512 87.7717C93.3325 87.7717 93.2193 87.7604 93.1119 87.7435C92.7499 87.6982 92.4275 87.6021 92.1504 87.4381C91.8733 87.2797 91.6357 87.0818 91.4491 86.8442C91.2625 86.6067 91.1098 86.3409 91.0136 86.0468C90.9175 85.7527 90.8666 85.4416 90.8666 85.1192V75.9118H89.0737C88.9832 75.9118 88.9041 75.8722 88.8362 75.7987C88.7683 75.7251 88.7344 75.629 88.7344 75.5159V75.1087C88.7344 74.9899 88.7683 74.9051 88.8362 74.8542C88.9041 74.8033 88.9832 74.7806 89.0737 74.7806H90.8666V71.9867C90.8666 71.8793 90.8892 71.8001 90.9344 71.7492C90.9797 71.6983 91.0645 71.653 91.1833 71.6134L91.7602 71.4664C91.7602 71.4664 91.8111 71.4551 91.845 71.4551C91.9298 71.4551 91.9921 71.4947 92.0373 71.5682C92.0826 71.6417 92.0995 71.7322 92.0995 71.8284V74.7806V74.7863Z" fill="white"/>
<path d="M97.0433 81.732C97.0998 82.4559 97.2865 83.1289 97.5975 83.7567C97.9086 84.3845 98.3158 84.9274 98.8192 85.3912C99.3225 85.855 99.8938 86.2226 100.539 86.4884C101.183 86.7542 101.868 86.89 102.586 86.89C103.117 86.89 103.581 86.8447 103.972 86.7486C104.362 86.6524 104.707 86.528 105.006 86.3809C105.306 86.2339 105.566 86.0699 105.793 85.8889C106.019 85.7136 106.234 85.5382 106.432 85.3742C106.511 85.312 106.596 85.2781 106.698 85.2781C106.782 85.2781 106.845 85.3064 106.879 85.3629L107.178 85.7701C107.235 85.8493 107.257 85.9341 107.246 86.019C107.235 86.1038 107.195 86.183 107.122 86.2509C106.816 86.5223 106.494 86.7655 106.16 86.9804C105.827 87.1954 105.476 87.382 105.108 87.5404C104.741 87.6987 104.35 87.8175 103.938 87.8967C103.519 87.9758 103.078 88.0211 102.603 88.0211C101.692 88.0211 100.827 87.8458 100.001 87.4951C99.1755 87.1445 98.4516 86.6637 97.8351 86.0586C97.213 85.4534 96.7209 84.7408 96.3533 83.9264C95.9857 83.1119 95.8047 82.2466 95.8047 81.3304C95.8047 80.4142 95.98 79.5376 96.3363 78.7118C96.6926 77.8917 97.179 77.1735 97.7898 76.557C98.4007 75.9405 99.1246 75.4541 99.9447 75.0978C100.765 74.7415 101.641 74.5605 102.569 74.5605C103.559 74.5605 104.458 74.7472 105.272 75.1261C106.087 75.505 106.782 76.0027 107.365 76.6249C107.947 77.247 108.4 77.954 108.722 78.7514C109.045 79.5489 109.209 80.3633 109.209 81.1947C109.209 81.5566 109.011 81.7376 108.62 81.7376H97.0376L97.0433 81.732ZM100.589 76.0763C99.9729 76.3308 99.4187 76.6814 98.9323 77.1226C98.4459 77.5637 98.0387 78.0784 97.7163 78.6666C97.3939 79.2548 97.179 79.8826 97.0829 80.5443H108.038C107.936 79.9561 107.738 79.3735 107.444 78.7967C107.15 78.2198 106.771 77.7051 106.302 77.2413C105.838 76.7776 105.289 76.4043 104.656 76.1215C104.022 75.8387 103.315 75.6973 102.535 75.6973C101.851 75.6973 101.2 75.8274 100.584 76.0819L100.589 76.0763Z" fill="white"/>
<path d="M121.521 85.2894C121.605 85.2894 121.668 85.3233 121.713 85.3855L122.035 85.855C122.103 85.9398 122.131 86.0246 122.114 86.1151C122.097 86.2056 122.047 86.2848 121.962 86.3527C121.69 86.5732 121.396 86.7825 121.068 86.9861C120.74 87.1897 120.395 87.3707 120.022 87.5234C119.649 87.6761 119.258 87.8005 118.845 87.891C118.433 87.9815 117.997 88.0267 117.539 88.0267C116.617 88.0267 115.746 87.8514 114.92 87.4951C114.095 87.1388 113.382 86.6581 112.76 86.0529C112.143 85.4477 111.651 84.7295 111.295 83.9094C110.939 83.0893 110.758 82.2127 110.758 81.2738C110.758 80.335 110.939 79.481 111.295 78.6609C111.651 77.8465 112.143 77.1339 112.76 76.5231C113.376 75.9179 114.095 75.4372 114.92 75.0865C115.746 74.7359 116.611 74.5605 117.528 74.5605C117.912 74.5605 118.297 74.6001 118.687 74.6737C119.077 74.7472 119.462 74.8546 119.841 75.0017C120.22 75.1487 120.582 75.3184 120.927 75.522C121.277 75.7313 121.6 75.9575 121.894 76.212C122.007 76.3138 122.052 76.4043 122.03 76.4835C122.007 76.5627 121.984 76.6192 121.973 76.6475L121.662 77.1395C121.662 77.1395 121.617 77.1848 121.577 77.2074C121.532 77.23 121.487 77.247 121.43 77.247C121.351 77.247 121.283 77.2187 121.215 77.1622C120.655 76.6645 120.05 76.3082 119.4 76.0876C118.749 75.867 118.122 75.7596 117.516 75.7596C116.804 75.7652 116.119 75.9066 115.452 76.1837C114.79 76.4609 114.202 76.8454 113.693 77.3318C113.184 77.8239 112.777 78.4008 112.471 79.0738C112.166 79.7468 112.013 80.4764 112.013 81.2738C112.013 82.0713 112.16 82.7613 112.449 83.44C112.743 84.113 113.133 84.7012 113.631 85.2046C114.129 85.7079 114.711 86.0982 115.384 86.3866C116.057 86.675 116.77 86.8164 117.522 86.8164C117.941 86.8164 118.331 86.7768 118.687 86.6977C119.043 86.6185 119.377 86.5167 119.682 86.3809C119.988 86.2452 120.271 86.0981 120.537 85.9285C120.797 85.7588 121.04 85.5778 121.26 85.3855C121.34 85.3233 121.424 85.2894 121.515 85.2894H121.521Z" fill="white"/>
<path fill-rule="evenodd" clip-rule="evenodd" d="M57.3441 36.2425C56.7332 35.6317 55.7435 35.6317 55.1327 36.2425L54.5106 36.8646L20.1635 2.51761C18.1218 0.475902 14.8076 0.475902 12.7659 2.51761L8.05472 7.2288C6.01301 9.2705 6.01301 12.5847 8.05472 14.6264L50.8004 57.3721C52.8421 59.4138 56.1564 59.4138 58.1981 57.3721L60.3246 55.2456C60.4094 55.1664 60.4999 55.0986 60.5791 55.0137L67.2415 48.3513C67.8523 47.7405 67.8523 46.7508 67.2415 46.1399L57.3441 36.2425Z" fill="white"/>
<path fill-rule="evenodd" clip-rule="evenodd" d="M92.6368 15.5754L87.9426 10.8812C85.8952 8.83386 82.5753 8.83386 80.528 10.8812L73.4244 17.9848C72.5252 18.884 72.5252 20.3488 73.4244 21.2481L82.089 29.9126C83.09 30.9137 84.7132 30.9137 85.7143 29.9126L92.6368 22.9901C94.6842 20.9427 94.6842 17.6228 92.6368 15.5754Z" fill="white"/>
<path fill-rule="evenodd" clip-rule="evenodd" d="M115.217 23.9405L110.557 19.2802C108.498 17.2216 105.167 17.2216 103.108 19.2802L85.5641 36.8242L50.4762 1.73064C48.1687 -0.57688 44.4303 -0.57688 42.1227 1.73064L38.3674 5.48602C36.0598 7.79354 36.0598 11.532 38.3674 13.8395L77.1032 52.5753C77.1032 52.5753 77.1541 52.6319 77.1824 52.6601L81.8427 57.3204C83.9013 59.3791 87.2325 59.3791 89.2912 57.3204L89.6645 56.9471C89.6645 56.9471 89.721 56.8962 89.7493 56.868L93.5047 53.1126C93.5047 53.1126 93.5556 53.056 93.5782 53.0277L115.217 31.3891C117.276 29.3304 117.276 25.9992 115.217 23.9405Z" fill="#C6D54F"/>
<path d="M8.65132 100.835L6.98288 104.681C6.9603 104.736 6.93019 104.775 6.89507 104.794C6.85994 104.814 6.82732 104.823 6.79471 104.823H6.56138C6.53127 104.823 6.49614 104.814 6.46102 104.794C6.42589 104.775 6.39579 104.739 6.37321 104.681L3.07897 97.0331C3.04886 96.9631 3.05137 96.9076 3.09151 96.8665C3.13166 96.8255 3.17431 96.8086 3.227 96.8086H3.57072C3.60083 96.8086 3.63094 96.8183 3.66104 96.8376C3.69115 96.8569 3.71624 96.8931 3.73882 96.9486L6.71944 103.889L9.67246 96.9486C9.69504 96.8883 9.72264 96.8496 9.75526 96.8327C9.78536 96.8158 9.81798 96.8086 9.84809 96.8086H10.1742C10.2244 96.8086 10.2646 96.8279 10.2947 96.8665C10.3248 96.9052 10.3223 96.9607 10.2922 97.0331L8.99003 100.048L10.6635 103.877L13.6015 96.9486C13.624 96.8883 13.6516 96.8496 13.6792 96.8327C13.7093 96.8158 13.7395 96.8086 13.7696 96.8086H14.1083C14.1584 96.8086 14.2036 96.8279 14.2463 96.8714C14.2889 96.9148 14.2914 96.9679 14.2613 97.0331L10.947 104.681C10.9244 104.736 10.8943 104.775 10.8567 104.794C10.819 104.814 10.7864 104.823 10.7613 104.823H10.523C10.4929 104.823 10.4578 104.814 10.4226 104.794C10.3875 104.775 10.3574 104.739 10.3348 104.681L8.65383 100.835H8.65132Z" fill="white"/>
<path d="M14.7388 101.649C14.7689 102.03 14.8718 102.385 15.0424 102.716C15.213 103.044 15.4363 103.331 15.7098 103.578C15.9832 103.824 16.2969 104.014 16.6531 104.157C17.0069 104.297 17.3807 104.367 17.7746 104.367C18.0657 104.367 18.3191 104.343 18.5323 104.292C18.7456 104.241 18.9337 104.176 19.0993 104.099C19.2624 104.019 19.4054 103.935 19.5309 103.841C19.6563 103.747 19.7717 103.657 19.8821 103.57C19.9248 103.537 19.9724 103.52 20.0276 103.52C20.0753 103.52 20.1079 103.534 20.128 103.565L20.2911 103.778C20.3212 103.819 20.3337 103.862 20.3287 103.911C20.3237 103.957 20.3011 103.998 20.261 104.031C20.0929 104.174 19.9198 104.302 19.7366 104.415C19.5535 104.529 19.3628 104.628 19.1621 104.71C18.9613 104.792 18.7481 104.855 18.5198 104.898C18.2915 104.942 18.0481 104.963 17.7872 104.963C17.2904 104.963 16.8137 104.871 16.3646 104.686C15.9155 104.5 15.5166 104.249 15.1779 103.928C14.8367 103.607 14.5682 103.232 14.3675 102.805C14.1668 102.378 14.0664 101.921 14.0664 101.439C14.0664 100.956 14.1643 100.492 14.3574 100.06C14.5506 99.6281 14.8166 99.2491 15.1528 98.9256C15.489 98.6021 15.8829 98.3462 16.332 98.1555C16.7811 97.9648 17.2603 97.873 17.7696 97.873C18.309 97.873 18.8033 97.972 19.2499 98.17C19.6965 98.3679 20.0778 98.6311 20.3965 98.9594C20.7151 99.2877 20.9635 99.6595 21.1391 100.08C21.3172 100.5 21.4051 100.927 21.4051 101.366C21.4051 101.557 21.2972 101.654 21.0839 101.654H14.7413L14.7388 101.649ZM16.6832 98.6673C16.3445 98.8025 16.0435 98.9859 15.775 99.2177C15.509 99.4494 15.2858 99.7198 15.1101 100.031C14.932 100.343 14.8166 100.671 14.7639 101.019H20.7628C20.7076 100.707 20.5997 100.401 20.4391 100.099C20.2785 99.7971 20.0703 99.5219 19.8144 99.278C19.5585 99.0342 19.2599 98.8387 18.9137 98.689C18.5674 98.5393 18.1811 98.4645 17.752 98.4645C17.3782 98.4645 17.0219 98.5321 16.6832 98.6673Z" fill="white"/>
<path d="M26.6442 98.2388L26.0786 104.788C26.0673 104.901 26.0108 104.958 25.9033 104.958H25.5753C25.5187 104.958 25.4791 104.941 25.4678 104.907C25.4509 104.873 25.4509 104.828 25.4565 104.765L26.1917 97.2716C26.1974 97.2264 26.22 97.1925 26.2483 97.1585C26.2766 97.1302 26.3218 97.1133 26.3784 97.1133H26.729C26.7743 97.1133 26.8195 97.1529 26.8535 97.2264L29.6361 103.453L32.3847 97.2434C32.4017 97.1981 32.4243 97.1642 32.4526 97.1416C32.4809 97.1189 32.5092 97.1133 32.5318 97.1133H32.9164C33.0238 97.1133 33.0804 97.1642 33.0917 97.2716L33.8043 104.777C33.8156 104.896 33.7647 104.958 33.6516 104.958H33.3688C33.2614 104.958 33.2048 104.907 33.1935 104.799L32.594 98.2614L29.9188 104.268C29.9019 104.313 29.8793 104.347 29.8453 104.358C29.817 104.37 29.7888 104.375 29.7661 104.375H29.472C29.472 104.375 29.4211 104.37 29.3929 104.358C29.3646 104.347 29.3363 104.319 29.3193 104.273L26.6329 98.2444L26.6442 98.2388Z" fill="white"/>
<path d="M41.2149 103.501C41.0735 103.744 40.9038 103.964 40.7059 104.162C40.5023 104.355 40.2817 104.524 40.0385 104.66C39.7953 104.796 39.5352 104.903 39.258 104.977C38.9809 105.05 38.6925 105.084 38.3984 105.084C37.9233 105.084 37.4708 104.994 37.0523 104.807C36.6338 104.621 36.2662 104.377 35.9495 104.061C35.6327 103.744 35.3839 103.376 35.2029 102.958C35.0219 102.534 34.9258 102.087 34.9258 101.617C34.9258 101.148 35.0163 100.701 35.2029 100.277C35.3895 99.8528 35.6327 99.4908 35.9495 99.1741C36.2662 98.8574 36.6338 98.6085 37.0523 98.4275C37.4765 98.2465 37.9233 98.1504 38.3927 98.1504C38.6812 98.1504 38.9639 98.19 39.2411 98.2635C39.5182 98.337 39.7784 98.4445 40.0216 98.5802C40.2648 98.716 40.491 98.8856 40.6946 99.0779C40.8982 99.2759 41.0735 99.4965 41.2149 99.7396V98.3879C41.2149 98.2805 41.2658 98.2239 41.3733 98.2239H41.6504C41.7692 98.2239 41.8314 98.2805 41.8314 98.3879V104.785C41.8314 104.841 41.8144 104.886 41.7748 104.915C41.7352 104.943 41.69 104.954 41.6334 104.954H41.4185C41.2828 104.954 41.2149 104.892 41.2149 104.762V103.495V103.501ZM41.0113 100.52C40.8586 100.175 40.6493 99.8697 40.3892 99.6096C40.129 99.3494 39.8236 99.1401 39.4843 98.9818C39.1393 98.8234 38.7773 98.7442 38.3984 98.7442H38.3814C38.0025 98.7442 37.6462 98.8234 37.3068 98.9761C36.9675 99.1288 36.6677 99.3381 36.4132 99.5983C36.1587 99.8584 35.9551 100.164 35.8024 100.509C35.6497 100.854 35.5762 101.221 35.5762 101.6C35.5762 101.979 35.6497 102.353 35.7968 102.703C35.9438 103.054 36.1418 103.359 36.4019 103.625C36.6564 103.891 36.9562 104.1 37.2955 104.259C37.6349 104.417 37.9968 104.496 38.3814 104.496C38.766 104.496 39.1449 104.423 39.4899 104.27C39.8406 104.117 40.146 103.914 40.4061 103.648C40.6663 103.388 40.8756 103.082 41.0283 102.732C41.181 102.381 41.2545 102.008 41.2545 101.617C41.2545 101.227 41.1753 100.865 41.0226 100.526L41.0113 100.52Z" fill="white"/>
<path d="M45.5966 100.881L48.8996 104.676C48.9278 104.71 48.9448 104.743 48.9505 104.777C48.9505 104.811 48.9505 104.845 48.9391 104.874C48.9278 104.902 48.9052 104.924 48.8826 104.941C48.86 104.958 48.8317 104.964 48.7978 104.964H48.4132C48.3849 104.964 48.351 104.958 48.3227 104.947C48.2887 104.936 48.2548 104.902 48.2039 104.845L45.1611 101.299L44.0583 102.351V104.772C44.0583 104.828 44.047 104.879 44.0187 104.913C43.9904 104.953 43.9508 104.97 43.8943 104.97H43.5606C43.504 104.97 43.4701 104.953 43.4644 104.913C43.4588 104.879 43.4531 104.828 43.4531 104.772V96.4523C43.4531 96.3957 43.4644 96.3505 43.4927 96.3165C43.5153 96.2826 43.5606 96.2656 43.6171 96.2656H43.8999C43.9565 96.2656 44.0017 96.2826 44.0244 96.3165C44.047 96.3505 44.0639 96.3957 44.0639 96.4523V101.565L47.4008 98.3299C47.446 98.2847 47.4856 98.2621 47.5196 98.2508C47.5535 98.2395 47.5874 98.2395 47.6214 98.2395H48.0229C48.0851 98.2395 48.1304 98.2621 48.153 98.3073C48.1756 98.3526 48.1643 98.3978 48.1191 98.4487L45.6023 100.892L45.5966 100.881Z" fill="white"/>
<path d="M50.258 101.854C50.2863 102.227 50.3825 102.577 50.5465 102.9C50.7105 103.222 50.9197 103.505 51.1743 103.743C51.4344 103.98 51.7285 104.172 52.0622 104.308C52.3959 104.444 52.7465 104.517 53.1198 104.517C53.3969 104.517 53.6345 104.495 53.8324 104.444C54.0304 104.393 54.2114 104.331 54.3641 104.257C54.5168 104.178 54.6525 104.093 54.7713 104.003C54.89 103.912 54.9975 103.822 55.0993 103.737C55.1389 103.703 55.1841 103.686 55.235 103.686C55.2803 103.686 55.3086 103.703 55.3312 103.731L55.4839 103.94C55.5122 103.98 55.5235 104.025 55.5178 104.071C55.5122 104.116 55.4895 104.155 55.4556 104.189C55.2973 104.331 55.1332 104.455 54.9579 104.568C54.7882 104.681 54.6073 104.778 54.415 104.857C54.2227 104.936 54.0247 104.998 53.8098 105.043C53.5949 105.089 53.363 105.106 53.1198 105.106C52.6504 105.106 52.2036 105.015 51.7794 104.834C51.3552 104.653 50.982 104.404 50.6596 104.093C50.3372 103.782 50.0827 103.414 49.8961 102.996C49.7094 102.577 49.6133 102.131 49.6133 101.656C49.6133 101.18 49.7038 100.728 49.8904 100.304C50.0714 99.8797 50.3259 99.5121 50.6426 99.1953C50.9593 98.8786 51.3326 98.6298 51.7511 98.4431C52.1753 98.2565 52.6278 98.166 53.1085 98.166C53.6175 98.166 54.0813 98.2622 54.4998 98.4545C54.9183 98.6467 55.2803 98.9069 55.58 99.2293C55.8798 99.5517 56.1173 99.9136 56.2813 100.326C56.4454 100.739 56.5302 101.158 56.5302 101.588C56.5302 101.774 56.4284 101.87 56.2248 101.87H50.2467L50.258 101.854ZM52.0848 98.9295C51.7681 99.0596 51.4797 99.2406 51.2308 99.4668C50.982 99.693 50.7727 99.9589 50.603 100.264C50.4334 100.57 50.3259 100.892 50.275 101.231H55.9307C55.8798 100.926 55.778 100.626 55.6253 100.332C55.4726 100.038 55.2746 99.7666 55.0371 99.529C54.7995 99.2915 54.5111 99.0992 54.1887 98.9522C53.8607 98.8051 53.4987 98.7316 53.0972 98.7316C52.7465 98.7316 52.4072 98.7994 52.0905 98.9295H52.0848Z" fill="white"/>
<path d="M61.0586 97.3056C61.0586 97.249 61.0756 97.2038 61.1038 97.1698C61.1321 97.1359 61.1717 97.1133 61.2226 97.1133H61.5619C61.6185 97.1133 61.6638 97.1302 61.6864 97.1698C61.709 97.2094 61.7203 97.2547 61.7203 97.3056V104.771C61.7203 104.828 61.709 104.879 61.6864 104.912C61.6638 104.946 61.6185 104.963 61.5619 104.963H61.2226C61.1661 104.963 61.1208 104.946 61.0982 104.912C61.0756 104.879 61.0586 104.833 61.0586 104.771V97.3056Z" fill="white"/>
<path d="M62.9609 97.2773C62.9609 97.1698 63.0175 97.1133 63.1306 97.1133H68.7297C68.8372 97.1133 68.8881 97.1698 68.8881 97.2773V97.5375C68.8881 97.6506 68.8372 97.7071 68.7297 97.7071H66.2469V104.788C66.2469 104.901 66.196 104.958 66.0885 104.958H65.7775C65.6644 104.958 65.6078 104.901 65.6078 104.788V97.7071H63.1306C63.0175 97.7071 62.9609 97.6506 62.9609 97.5375V97.2773Z" fill="white"/>
<path d="M79.0447 101.276H74.0111V104.771C74.0111 104.828 73.9998 104.879 73.9772 104.907C73.9546 104.941 73.9093 104.958 73.8471 104.958H73.5078C73.4003 104.958 73.3438 104.896 73.3438 104.771V97.3056C73.3438 97.2547 73.3551 97.2094 73.3833 97.1698C73.4116 97.1302 73.4512 97.1133 73.5078 97.1133H73.8528C73.9602 97.1133 74.0111 97.1755 74.0111 97.2999V100.608H79.0447V97.3056C79.0447 97.2547 79.056 97.2094 79.0843 97.1698C79.1126 97.1302 79.1521 97.1133 79.2087 97.1133H79.5537C79.6612 97.1133 79.7121 97.1755 79.7121 97.2999V104.771C79.7121 104.896 79.6555 104.958 79.5424 104.958H79.2087C79.1012 104.958 79.0447 104.896 79.0447 104.771V101.276Z" fill="white"/>
<path d="M87.4532 103.501C87.3118 103.744 87.1421 103.964 86.9442 104.162C86.7406 104.355 86.52 104.524 86.2768 104.66C86.0336 104.796 85.7735 104.903 85.4963 104.977C85.2192 105.05 84.9308 105.084 84.6367 105.084C84.1616 105.084 83.7091 104.994 83.2906 104.807C82.8721 104.621 82.5045 104.377 82.1877 104.061C81.871 103.744 81.6222 103.376 81.4412 102.958C81.2602 102.534 81.1641 102.087 81.1641 101.617C81.1641 101.148 81.2546 100.701 81.4412 100.277C81.6278 99.8528 81.871 99.4908 82.1877 99.1741C82.5045 98.8574 82.8721 98.6085 83.2906 98.4275C83.7148 98.2465 84.1616 98.1504 84.631 98.1504C84.9194 98.1504 85.2022 98.19 85.4794 98.2635C85.7565 98.337 86.0166 98.4445 86.2598 98.5802C86.503 98.716 86.7293 98.8856 86.9329 99.0779C87.1365 99.2759 87.3118 99.4965 87.4532 99.7396V98.3879C87.4532 98.2805 87.5041 98.2239 87.6115 98.2239H87.8887C88.0074 98.2239 88.0697 98.2805 88.0697 98.3879V104.785C88.0697 104.841 88.0527 104.886 88.0131 104.915C87.9735 104.943 87.9283 104.954 87.8717 104.954H87.6568C87.5211 104.954 87.4532 104.892 87.4532 104.762V103.495V103.501ZM87.2496 100.52C87.0969 100.175 86.8876 99.8697 86.6275 99.6096C86.3673 99.3494 86.0619 99.1401 85.7225 98.9818C85.3776 98.8234 85.0156 98.7442 84.6367 98.7442H84.6197C84.2408 98.7442 83.8844 98.8234 83.5451 98.9761C83.2058 99.1288 82.906 99.3381 82.6515 99.5983C82.397 99.8584 82.1934 100.164 82.0407 100.509C81.888 100.854 81.8145 101.221 81.8145 101.6C81.8145 101.979 81.888 102.353 82.035 102.703C82.1821 103.054 82.38 103.359 82.6402 103.625C82.8947 103.891 83.1945 104.1 83.5338 104.259C83.8731 104.417 84.2351 104.496 84.6197 104.496C85.0043 104.496 85.3832 104.423 85.7282 104.27C86.0789 104.117 86.3843 103.914 86.6444 103.648C86.9046 103.388 87.1138 103.082 87.2665 102.732C87.4193 102.381 87.4928 102.008 87.4928 101.617C87.4928 101.227 87.4136 100.865 87.2609 100.526L87.2496 100.52Z" fill="white"/>
<path d="M89.6758 98.3977C89.6758 98.2846 89.7323 98.228 89.8454 98.228H90.1452C90.2583 98.228 90.3149 98.2846 90.3149 98.3977V99.7438C90.4506 99.4892 90.6203 99.2687 90.8182 99.0707C91.0162 98.8728 91.2424 98.7088 91.4856 98.573C91.7288 98.4373 91.9833 98.3355 92.2604 98.2676C92.5376 98.1941 92.8147 98.1602 93.1031 98.1602C93.5782 98.1602 94.0307 98.2507 94.4492 98.4373C94.8677 98.6239 95.2353 98.8671 95.5464 99.1838C95.8574 99.4949 96.1063 99.8625 96.2929 100.287C96.4796 100.711 96.5701 101.152 96.5701 101.633C96.5701 102.113 96.4796 102.56 96.2929 102.979C96.112 103.403 95.8631 103.765 95.5464 104.082C95.2353 104.393 94.8677 104.642 94.4492 104.828C94.0307 105.015 93.5782 105.105 93.1031 105.105C92.8147 105.105 92.5319 105.066 92.2548 104.992C91.9776 104.919 91.7175 104.811 91.4743 104.67C91.2311 104.528 91.0105 104.364 90.8069 104.172C90.6033 103.98 90.4336 103.759 90.2922 103.516V106.915C90.2922 106.915 90.2809 106.96 90.264 106.983C90.247 107 90.2187 107.011 90.1904 107.011H89.8172C89.721 107.011 89.6758 106.966 89.6758 106.87V98.4147V98.3977ZM95.6991 100.53C95.552 100.185 95.3541 99.8795 95.0996 99.6137C94.8451 99.3479 94.551 99.1386 94.2116 98.9859C93.8723 98.8332 93.5103 98.754 93.1201 98.754C92.7299 98.754 92.3566 98.8275 92.0116 98.9802C91.6609 99.1329 91.3612 99.3365 91.101 99.591C90.8408 99.8456 90.6316 100.151 90.4845 100.496C90.3318 100.841 90.2583 101.214 90.2583 101.61C90.2583 102.006 90.3318 102.368 90.4789 102.719C90.6259 103.069 90.8295 103.375 91.084 103.641C91.3385 103.906 91.644 104.116 91.9833 104.268C92.3283 104.427 92.6959 104.5 93.0862 104.5C93.4764 104.5 93.844 104.421 94.189 104.268C94.534 104.116 94.8338 103.906 95.0883 103.646C95.3428 103.386 95.5464 103.081 95.6934 102.73C95.8405 102.379 95.914 102.012 95.914 101.621C95.914 101.231 95.8405 100.869 95.6934 100.524L95.6991 100.53Z" fill="white"/>
<path d="M97.957 98.3977C97.957 98.2846 98.0136 98.228 98.1267 98.228H98.4265C98.5396 98.228 98.5961 98.2846 98.5961 98.3977V99.7438C98.7319 99.4892 98.9015 99.2687 99.0995 99.0707C99.2974 98.8728 99.5237 98.7088 99.7669 98.573C100.01 98.4373 100.265 98.3355 100.542 98.2676C100.819 98.1941 101.096 98.1602 101.384 98.1602C101.859 98.1602 102.312 98.2507 102.73 98.4373C103.149 98.6239 103.517 98.8671 103.828 99.1838C104.139 99.4949 104.388 99.8625 104.574 100.287C104.761 100.711 104.851 101.152 104.851 101.633C104.851 102.113 104.761 102.56 104.574 102.979C104.393 103.403 104.144 103.765 103.828 104.082C103.517 104.393 103.149 104.642 102.73 104.828C102.312 105.015 101.859 105.105 101.384 105.105C101.096 105.105 100.813 105.066 100.536 104.992C100.259 104.919 99.9987 104.811 99.7555 104.67C99.5123 104.528 99.2918 104.364 99.0882 104.172C98.8846 103.98 98.7149 103.759 98.5735 103.516V106.915C98.5735 106.915 98.5622 106.96 98.5452 106.983C98.5283 107 98.5 107.011 98.4717 107.011H98.0984C98.0023 107.011 97.957 106.966 97.957 106.87V98.4147V98.3977ZM103.975 100.53C103.828 100.185 103.63 99.8795 103.375 99.6137C103.121 99.3479 102.827 99.1386 102.487 98.9859C102.148 98.8332 101.786 98.754 101.396 98.754C101.005 98.754 100.632 98.8275 100.287 98.9802C99.9365 99.1329 99.6368 99.3365 99.3766 99.591C99.1164 99.8456 98.9072 100.151 98.7601 100.496C98.6074 100.841 98.5339 101.214 98.5339 101.61C98.5339 102.006 98.6074 102.368 98.7545 102.719C98.9015 103.069 99.1051 103.375 99.3596 103.641C99.6141 103.906 99.9196 104.116 100.259 104.268C100.604 104.427 100.972 104.5 101.362 104.5C101.752 104.5 102.12 104.421 102.465 104.268C102.81 104.116 103.109 103.906 103.364 103.646C103.618 103.386 103.822 103.081 103.969 102.73C104.116 102.379 104.19 102.012 104.19 101.621C104.19 101.231 104.116 100.869 103.969 100.524L103.975 100.53Z" fill="white"/>
<path d="M106.492 101.854C106.521 102.227 106.617 102.577 106.781 102.9C106.945 103.222 107.154 103.505 107.409 103.743C107.669 103.98 107.963 104.172 108.297 104.308C108.63 104.444 108.981 104.517 109.354 104.517C109.631 104.517 109.869 104.495 110.067 104.444C110.265 104.393 110.446 104.331 110.598 104.257C110.751 104.178 110.887 104.093 111.006 104.003C111.124 103.912 111.232 103.822 111.334 103.737C111.373 103.703 111.419 103.686 111.469 103.686C111.515 103.686 111.543 103.703 111.566 103.731L111.718 103.94C111.747 103.98 111.758 104.025 111.752 104.071C111.747 104.116 111.724 104.155 111.69 104.189C111.532 104.331 111.368 104.455 111.192 104.568C111.023 104.681 110.842 104.778 110.649 104.857C110.457 104.936 110.259 104.998 110.044 105.043C109.829 105.089 109.597 105.106 109.354 105.106C108.885 105.106 108.438 105.015 108.014 104.834C107.59 104.653 107.216 104.404 106.894 104.093C106.572 103.782 106.317 103.414 106.13 102.996C105.944 102.577 105.848 102.131 105.848 101.656C105.848 101.18 105.938 100.728 106.125 100.304C106.306 99.8797 106.56 99.5121 106.877 99.1953C107.194 98.8786 107.567 98.6298 107.986 98.4431C108.41 98.2565 108.862 98.166 109.343 98.166C109.852 98.166 110.316 98.2622 110.734 98.4545C111.153 98.6467 111.515 98.9069 111.814 99.2293C112.114 99.5517 112.352 99.9136 112.516 100.326C112.68 100.739 112.765 101.158 112.765 101.588C112.765 101.774 112.663 101.87 112.459 101.87H106.481L106.492 101.854ZM108.319 98.9295C108.002 99.0596 107.714 99.2406 107.465 99.4668C107.216 99.693 107.007 99.9589 106.837 100.264C106.668 100.57 106.56 100.892 106.509 101.231H112.165C112.114 100.926 112.012 100.626 111.86 100.332C111.707 100.038 111.509 99.7666 111.271 99.529C111.034 99.2915 110.745 99.0992 110.423 98.9522C110.095 98.8051 109.733 98.7316 109.332 98.7316C108.981 98.7316 108.642 98.7994 108.325 98.9295H108.319Z" fill="white"/>
<path d="M114.004 98.4195C114.004 98.3573 114.021 98.312 114.06 98.2781C114.094 98.2442 114.145 98.2272 114.202 98.2272H114.422C114.485 98.2272 114.53 98.2442 114.564 98.2838C114.598 98.3177 114.615 98.3686 114.615 98.4195V99.2565C114.767 99.0247 114.943 98.838 115.129 98.691C115.316 98.5439 115.514 98.4308 115.712 98.3516C115.91 98.2724 116.108 98.2159 116.306 98.182C116.504 98.1537 116.685 98.1367 116.849 98.1367C117.256 98.1367 117.624 98.2046 117.957 98.346C118.291 98.4874 118.574 98.6797 118.811 98.9285C119.049 99.1774 119.23 99.4771 119.36 99.8221C119.49 100.167 119.558 100.546 119.558 100.953V104.726C119.558 104.805 119.535 104.861 119.496 104.901C119.456 104.941 119.405 104.957 119.343 104.957H119.151C119.066 104.957 119.009 104.941 118.981 104.907C118.953 104.873 118.941 104.816 118.941 104.731V100.936C118.941 100.659 118.89 100.393 118.794 100.133C118.698 99.873 118.557 99.6355 118.376 99.4319C118.195 99.2283 117.969 99.0643 117.703 98.9398C117.437 98.8154 117.137 98.7532 116.809 98.7532C116.538 98.7532 116.272 98.8041 116.006 98.9115C115.746 99.019 115.508 99.1661 115.305 99.3527C115.101 99.5393 114.931 99.7656 114.807 100.026C114.683 100.286 114.615 100.563 114.615 100.868V104.782C114.615 104.895 114.564 104.952 114.456 104.952H114.174C114.066 104.952 114.01 104.895 114.01 104.782V98.4138L114.004 98.4195Z" fill="white"/>
</g>
<defs>
<clipPath id="clip0_4463_66373">
<rect width="122.123" height="107" fill="white"/>
</clipPath>
</defs>
</svg>
